<svg width="46" height="37" viewBox="0 0 46 37" fill="none" xmlns="http://www.w3.org/2000/svg">
<path d="M14.0617 6.19189C12.1809 6.54708 9.39238 8.25528 9.40149 11.2761C9.40887 14.0191 11.6502 15.6817 11.6572 19.2761C11.668 21.9804 10.1787 23.801 8.56787 24.8106C9.2188 24.7528 9.93178 24.7155 10.7164 24.7138C12.3619 24.7094 13.3539 24.8666 13.4155 24.8766L21.8528 14.5167C19.5095 11.0065 16.773 8.28264 14.0617 6.19189Z" fill="white"/>
<path d="M21.1493 34.1683C22.2129 32.5139 22.3461 29.8774 22.4364 27.1918C22.5358 24.6868 23.0582 22.8019 26.4075 22.7901C27.1495 22.7875 27.8564 22.8896 29.1366 22.8861C34.0428 22.8644 37.2462 21.174 39.2389 20.0646C35.1676 17.4671 29.2251 14.8149 21.8527 14.5166C21.3723 15.8727 17.636 26.2678 17.3535 27.1067C17.396 27.157 18.0504 27.8909 18.8676 29.322C20.0731 31.2877 20.7201 32.9529 21.1493 34.1683Z" fill="white"/>
<path d="M3.32797 25.6777C2.90139 25.6803 2.68919 25.3968 2.63148 24.9048C2.57724 24.4163 0.466933 5.09943 0.152753 2.17586C0.107188 1.74903 0.00130378 0.965269 1.92374e-06 0.686068C-0.000865977 0.235788 0.292051 0.000877366 0.637476 8.93657e-06C1.6373 -0.003899 7.08598 1.27313 12.8684 5.32826C11.2024 5.79851 8.18865 7.53233 8.20253 11.1224C8.21338 14.3 10.4873 16.049 10.499 19.237C10.5164 24.4216 4.56126 25.6756 3.32797 25.6777Z" fill="white"/>
<path d="M21.6338 35.5473C21.7245 35.7879 21.81 35.9902 21.8959 36.1318C22.0287 36.3576 22.2018 36.46 22.4145 36.4592C22.549 36.4574 22.7139 36.4127 22.8961 36.3302C23.3418 36.1253 40.9598 27.9186 43.6169 26.6919C44.0022 26.507 44.7321 26.1804 44.973 26.0393C45.2225 25.8973 45.3366 25.6893 45.3366 25.4783C45.3357 25.3602 45.301 25.2408 45.2342 25.1322C44.9022 24.5947 43.1977 22.7844 40.3479 20.8062C38.0849 22.0528 34.5516 23.9807 29.2956 24.002C28.0077 24.0033 27.716 23.9169 26.8364 23.9203C24.2705 23.9295 23.63 25.0276 23.5362 27.2781C23.5206 27.7032 23.5132 28.2755 23.4885 28.903C23.4073 30.9151 23.17 33.6902 21.6338 35.5473Z" fill="white"/>
</svg>
