<svg width="40" height="37" viewBox="0 0 40 37" fill="none" xmlns="http://www.w3.org/2000/svg">
<path d="M12.4062 6.84033C10.7469 7.18949 8.28653 8.86872 8.29457 11.8383C8.30108 14.5347 10.2786 16.1691 10.2847 19.7026C10.2943 22.361 8.9803 24.1508 7.55908 25.1432C8.13339 25.0864 8.76244 25.0497 9.45467 25.048C10.9065 25.0438 11.7818 25.1983 11.8361 25.2081L19.2803 15.0239C17.2128 11.5732 14.7984 8.89561 12.4062 6.84033Z" fill="url(#paint0_linear_239_249)"/>
<path d="M18.6595 34.3418C19.5979 32.7155 19.7155 30.1237 19.7951 27.4836C19.8828 25.0211 20.3438 23.1681 23.2988 23.1566C23.9535 23.1541 24.5772 23.2544 25.7066 23.251C30.0354 23.2296 32.8617 21.5679 34.6199 20.4773C31.0278 17.9239 25.7847 15.3167 19.2802 15.0234C18.8563 16.3565 15.5598 26.5753 15.3105 27.3999C15.3481 27.4494 15.9254 28.1708 16.6464 29.5777C17.71 31.5101 18.2809 33.147 18.6595 34.3418Z" fill="url(#paint1_linear_239_249)"/>
<path d="M2.93623 25.9951C2.55987 25.9977 2.37265 25.7189 2.32173 25.2353C2.27387 24.7551 0.411971 5.76586 0.134773 2.89188C0.0945712 2.47229 0.00115031 1.70182 1.6973e-06 1.42736C-0.000764044 0.984718 0.257674 0.753792 0.562439 0.752938C1.44457 0.749097 6.25189 2.00446 11.3536 5.99081C9.8838 6.45308 7.22477 8.15749 7.23702 11.6867C7.24659 14.8104 9.25283 16.5297 9.26317 19.6636C9.27849 24.7602 4.02435 25.993 2.93623 25.9951Z" fill="url(#paint2_linear_239_249)"/>
<path d="M19.0869 35.6972C19.1669 35.9336 19.2424 36.1326 19.3182 36.2717C19.4353 36.4937 19.5881 36.5944 19.7757 36.5935C19.8944 36.5918 20.0399 36.5479 20.2007 36.4668C20.5939 36.2653 36.1381 28.1978 38.4824 26.992C38.8224 26.8102 39.4664 26.4892 39.6789 26.3504C39.899 26.2109 39.9997 26.0064 39.9997 25.799C39.9989 25.6829 39.9683 25.5655 39.9093 25.4588C39.6164 24.9303 38.1125 23.1508 35.5982 21.2061C33.6015 22.4315 30.4842 24.3268 25.8469 24.3477C24.7105 24.3489 24.4532 24.264 23.6772 24.2674C21.4132 24.2764 20.8481 25.3559 20.7654 27.5682C20.7516 27.9861 20.7451 28.5487 20.7233 29.1655C20.6517 31.1435 20.4423 33.8715 19.0869 35.6972Z" fill="url(#paint3_linear_239_249)"/>
<defs>
<linearGradient id="paint0_linear_239_249" x1="13.4197" y1="6.84033" x2="13.4197" y2="25.2081" gradientUnits="userSpaceOnUse">
<stop stop-color="#E3D4FF"/>
<stop offset="1" stop-color="#A06DFF"/>
</linearGradient>
<linearGradient id="paint1_linear_239_249" x1="24.9652" y1="15.0234" x2="24.9652" y2="34.3418" gradientUnits="userSpaceOnUse">
<stop stop-color="#E3D4FF"/>
<stop offset="1" stop-color="#A06DFF"/>
</linearGradient>
<linearGradient id="paint2_linear_239_249" x1="5.67682" y1="0.75293" x2="5.67682" y2="25.9951" gradientUnits="userSpaceOnUse">
<stop stop-color="#E3D4FF"/>
<stop offset="1" stop-color="#A06DFF"/>
</linearGradient>
<linearGradient id="paint3_linear_239_249" x1="29.5433" y1="21.2061" x2="29.5433" y2="36.5936" gradientUnits="userSpaceOnUse">
<stop stop-color="#E3D4FF"/>
<stop offset="1" stop-color="#A06DFF"/>
</linearGradient>
</defs>
</svg>
