<svg width="752" height="628" viewBox="0 0 752 628" fill="none" xmlns="http://www.w3.org/2000/svg">
<path d="M213.927 106.53C181.57 112.641 133.594 142.03 133.75 194.002C133.877 241.193 172.439 269.798 172.559 331.639C172.745 378.165 147.122 409.489 119.408 426.858C130.607 425.865 142.874 425.222 156.372 425.192C184.683 425.117 201.75 427.822 202.811 427.994L347.972 249.754C307.655 189.363 260.575 142.5 213.927 106.53Z" fill="url(#paint0_linear_121_1475)" fill-opacity="0.2"/>
<path d="M335.862 587.855C354.161 559.392 356.453 514.031 358.006 467.826C359.716 424.729 368.705 392.299 426.327 392.097C439.094 392.053 451.256 393.808 473.28 393.748C557.691 393.375 612.804 364.292 647.088 345.205C577.042 300.516 474.803 254.886 347.964 249.754C339.699 273.085 275.417 451.929 270.557 466.362C271.288 467.228 282.547 479.854 296.606 504.477C317.346 538.296 328.478 566.945 335.862 587.855Z" fill="url(#paint1_linear_121_1475)" fill-opacity="0.2"/>
<path d="M29.2566 441.777C21.9175 441.822 18.2667 436.943 17.2737 428.479C16.3405 420.075 -19.9666 87.7339 -25.3719 37.4349C-26.1559 30.0914 -27.9776 16.6071 -28 11.8036C-28.0149 4.05665 -22.9754 0.0150948 -17.0324 0.000153751C0.169159 -0.0670809 93.9119 21.9037 193.396 91.6709C164.734 99.7615 112.883 129.591 113.122 191.358C113.308 246.027 152.43 276.118 152.632 330.967C152.93 420.165 50.4749 441.74 29.2566 441.777Z" fill="url(#paint2_linear_121_1475)" fill-opacity="0.2"/>
<path d="M344.201 611.574C345.762 615.713 347.232 619.194 348.711 621.63C350.995 625.514 353.974 627.277 357.632 627.262C359.947 627.232 362.784 626.463 365.92 625.044C373.587 621.517 676.698 480.325 722.412 459.22C729.042 456.038 741.6 450.42 745.744 447.992C750.037 445.549 752 441.971 752 438.34C751.985 436.308 751.388 434.254 750.238 432.386C744.527 423.138 715.2 391.993 666.171 357.958C627.236 379.405 566.448 412.574 476.02 412.941C453.861 412.963 448.844 411.476 433.711 411.536C389.564 411.693 378.545 430.586 376.932 469.306C376.663 476.619 376.536 486.465 376.111 497.26C374.715 531.879 370.631 579.623 344.201 611.574Z" fill="url(#paint3_linear_121_1475)" fill-opacity="0.2"/>
<defs>
<linearGradient id="paint0_linear_121_1475" x1="233.69" y1="106.53" x2="233.69" y2="427.994" gradientUnits="userSpaceOnUse">
<stop stop-color="#BCEEFF"/>
<stop offset="1" stop-color="#A06DFF"/>
</linearGradient>
<linearGradient id="paint1_linear_121_1475" x1="458.823" y1="249.754" x2="458.823" y2="587.855" gradientUnits="userSpaceOnUse">
<stop stop-color="#BCEEFF"/>
<stop offset="1" stop-color="#A06DFF"/>
</linearGradient>
<linearGradient id="paint2_linear_121_1475" x1="82.698" y1="0" x2="82.698" y2="441.777" gradientUnits="userSpaceOnUse">
<stop stop-color="#D1B9FF"/>
<stop offset="1" stop-color="#A06DFF"/>
</linearGradient>
<linearGradient id="paint3_linear_121_1475" x1="548.101" y1="357.958" x2="548.101" y2="627.262" gradientUnits="userSpaceOnUse">
<stop stop-color="#D1B9FF"/>
<stop offset="1" stop-color="#A06DFF"/>
</linearGradient>
</defs>
</svg>
